<?xml version="1.0" encoding="utf-8"?>
<svg viewBox="69.5 69.5 460.5 460.5" width="460.5" height="460.5" xmlns="http://www.w3.org/2000/svg">
  <g id="layer1" style="display: inline;">
    <path d="M 300 170 L 190 170 L 190 120 C 190 120 190 70 300 70 C 410 70 410 120 410 120 C 410 120 410.828 209.04 410.414 239.52 C 410 270 390 290 359.934 290 C 329.868 290 280 290 240 290 C 200 290 170 320 170 360 C 170 400 170 410 170 410 L 120 410 C 120 410 70 410 70 300 C 70 190 120 190 120 190 L 300 190 Z M 240 100 C 228.954 100 220 108.954 220 120 C 220 131.046 228.954 140 240 140 C 251.046 140 260 131.046 260 120 C 260 108.954 251.046 100 240 100 Z" id="path101" style="fill: rgb(56, 126, 184); fill-opacity: 1;"/>
    <path d="M 299.5 170.5 L 189.5 170.5 L 189.5 120 C 189.5 120 189.527 107.254 203.414 94.63 C 217.22 82.079 244.897 69.5 300 69.5 C 355.103 69.5 382.78 82.079 396.586 94.63 C 410.473 107.254 410.5 119.995 410.5 119.995 C 410.5 119.995 411.328 209.041 410.914 239.527 C 410.689 254.857 405.526 267.665 396.647 276.544 C 387.767 285.423 375.06 290.5 359.934 290.5 C 329.868 290.5 280 290.5 240 290.5 C 220.098 290.5 202.788 297.919 190.354 310.354 C 177.919 322.788 170.5 340.098 170.5 360 C 170.5 400 170.5 410 170.5 410 L 170.5 410.5 L 120 410.5 C 120 410.5 107.254 410.473 94.63 396.586 C 82.079 382.78 69.5 355.103 69.5 300 C 69.5 244.897 82.079 217.22 94.63 203.414 C 107.254 189.527 120 189.5 120 189.5 L 299.5 189.5 Z M 300.5 169.5 L 300.5 190.5 L 120 190.5 C 120 190.5 107.746 190.473 95.37 204.086 C 82.921 217.78 70.5 245.103 70.5 300 C 70.5 354.897 82.921 382.22 95.37 395.914 C 107.746 409.527 120 409.5 120 409.5 L 169.5 409.5 C 169.5 407.057 169.5 400 169.5 360 C 169.5 339.902 177.081 322.212 189.646 309.646 C 202.212 297.081 219.902 289.5 240 289.5 C 280 289.5 329.868 289.5 359.934 289.5 C 374.874 289.5 387.2 284.577 395.94 275.836 C 404.681 267.095 409.725 254.663 409.914 239.513 C 410.328 209.039 409.5 120.005 409.5 120.005 C 409.5 120.005 409.527 107.746 395.914 95.37 C 382.22 82.921 354.897 70.5 300 70.5 C 245.103 70.5 217.78 82.921 204.086 95.37 C 190.473 107.746 190.5 120 190.5 120 L 190.5 169.5 Z" style="fill: none;"/>
    <path d="M 300 430 L 410 430 L 410 480 C 410 480 410 530 300 530 C 190 530 190 480 190 480 C 190 480 190 390 190 360 C 190 330 210 310 240 310 C 270 310 320 310 360 310 C 400 310 430 280 430 240 C 430 200 430 190 430 190 L 480 190 C 480 190 530 190 530 300 C 530 410 480 410 480 410 L 300 410 Z M 360 460 C 348.954 460 340 468.954 340 480 C 340 491.046 348.954 500 360 500 C 371.046 500 380 491.046 380 480 C 380 468.954 371.046 460 360 460 Z" id="path102" style="fill:#ffc331;fill-opacity:1"/>
  </g>
</svg>